<svg width="512" height="512" viewBox="0 0 360 360" fill="none" xmlns="http://www.w3.org/2000/svg" role="img" aria-label="Whiteforge Technologies icon">
  <defs>
    <linearGradient id="markGradient" x1="78" y1="68" x2="302" y2="292" gradientUnits="userSpaceOnUse"><stop offset="0" stop-color="#EAF7FF"/><stop offset="0.32" stop-color="#38D5FF"/><stop offset="0.66" stop-color="#2563EB"/><stop offset="1" stop-color="#0B2A6F"/></linearGradient>
    <linearGradient id="steelGradient" x1="54" y1="48" x2="236" y2="286" gradientUnits="userSpaceOnUse"><stop offset="0" stop-color="#FFFFFF"/><stop offset="0.45" stop-color="#CBD5E1"/><stop offset="1" stop-color="#475569"/></linearGradient>
    <linearGradient id="edgeGradient" x1="90" y1="70" x2="305" y2="295" gradientUnits="userSpaceOnUse"><stop offset="0" stop-color="#67E8F9"/><stop offset="0.5" stop-color="#2563EB"/><stop offset="1" stop-color="#1E3A8A"/></linearGradient>
    <filter id="softShadow" x="0" y="0" width="360" height="360" filterUnits="userSpaceOnUse" color-interpolation-filters="sRGB"><feDropShadow dx="0" dy="18" stdDeviation="18" flood-color="#020617" flood-opacity="0.32"/></filter>
  </defs>
  <rect width="360" height="360" rx="72" fill="#0B0F14"/>
  <g filter="url(#softShadow)">
    <path d="M54 72L118 288L179 155L240 288L306 72L250 103L221 206L181 116L140 206L111 103L54 72Z" fill="url(#steelGradient)"/>
    <path d="M181 116L240 288L306 72L250 103L221 206L181 116Z" fill="url(#markGradient)"/>
    <path d="M54 72L118 288L179 155L240 288L306 72" stroke="url(#edgeGradient)" stroke-width="5" stroke-linejoin="round"/>
    <path d="M111 103L140 206L181 116L221 206L250 103" stroke="#F8FAFC" stroke-opacity="0.35" stroke-width="3" stroke-linecap="round" stroke-linejoin="round"/>
  </g>
</svg>